<?xml version="1.0" encoding="UTF-8" standalone="no"?>
<svg
   xmlns:dc="http://purl.org/dc/elements/1.1/"
   xmlns:cc="http://creativecommons.org/ns#"
   xmlns:rdf="http://www.w3.org/1999/02/22-rdf-syntax-ns#"
   xmlns:svg="http://www.w3.org/2000/svg"
   xmlns="http://www.w3.org/2000/svg"
   xmlns:sodipodi="http://sodipodi.sourceforge.net/DTD/sodipodi-0.dtd"
   xmlns:inkscape="http://www.inkscape.org/namespaces/inkscape"
   style="fill-opacity:1; color-rendering:auto; color-interpolation:auto; text-rendering:auto; stroke:black; stroke-linecap:square; stroke-miterlimit:10; shape-rendering:auto; stroke-opacity:1; fill:black; stroke-dasharray:none; font-weight:normal; stroke-width:1; font-family:'Dialog'; font-style:normal; stroke-linejoin:miter; font-size:12px; stroke-dashoffset:0; image-rendering:auto;"
   width="210"
   height="136"
   id="svg2"
   version="1.1"
   inkscape:version="0.91 r"
   sodipodi:docname="figure1.svg">
  <metadata
     id="metadata101">
    <rdf:RDF>
      <cc:Work
         rdf:about="">
        <dc:format>image/svg+xml</dc:format>
        <dc:type
           rdf:resource="http://purl.org/dc/dcmitype/StillImage" />
        <dc:title></dc:title>
      </cc:Work>
    </rdf:RDF>
  </metadata>
  <sodipodi:namedview
     pagecolor="#ffffff"
     bordercolor="#666666"
     borderopacity="1"
     objecttolerance="10"
     gridtolerance="10"
     guidetolerance="10"
     inkscape:pageopacity="0"
     inkscape:pageshadow="2"
     inkscape:window-width="1920"
     inkscape:window-height="1028"
     id="namedview99"
     showgrid="false"
     inkscape:zoom="7.2192235"
     inkscape:cx="80.509891"
     inkscape:cy="54.911236"
     inkscape:window-x="0"
     inkscape:window-y="0"
     inkscape:window-maximized="1"
     inkscape:current-layer="svg2" />
  <!--Generated by the Batik Graphics2D SVG Generator-->
  <defs
     id="genericDefs" />
  <g
     id="g5"
     inkscape:export-xdpi="90"
     inkscape:export-ydpi="90">
    <defs
       id="defs1">
      <clipPath
         clipPathUnits="userSpaceOnUse"
         id="clipPath1">
        <path
           d="M 0,0 210,0 210,136 0,136 0,0 Z"
           id="path9"
           inkscape:connector-curvature="0" />
      </clipPath>
    </defs>
    <g
       style="fill:#ffffff;stroke:#ffffff"
       id="g11">
      <rect
         x="0"
         y="0"
         width="210"
         style="stroke:none"
         height="136"
         id="rect13"
         clip-path="url(#clipPath1)" />
    </g>
    <g
       style="color-interpolation:sRGB;fill:#ffffff;stroke:#ffffff;color-rendering:optimizeSpeed;image-rendering:optimizeSpeed;shape-rendering:crispEdges;text-rendering:optimizeSpeed"
       id="g15">
      <rect
         x="0"
         width="210"
         height="136"
         y="0"
         style="stroke:none"
         id="rect17" />
      <path
         style="stroke:none"
         d="m 73,90 76,0 0,-55 -76,0 z"
         id="path19"
         inkscape:connector-curvature="0" />
    </g>
    <g
       style="color-interpolation:linearRGB;stroke-width:0.66670001;stroke-linejoin:round;color-rendering:optimizeQuality;image-rendering:optimizeQuality;text-rendering:geometricPrecision"
       id="g21">
      <line
         y2="90"
         style="fill:none"
         x1="73"
         x2="149"
         y1="90"
         id="line23" />
      <line
         y2="88.480003"
         style="fill:none"
         x1="78.066704"
         x2="78.066704"
         y1="90"
         id="line25" />
      <line
         y2="88.480003"
         style="fill:none"
         x1="88.199997"
         x2="88.199997"
         y1="90"
         id="line27" />
      <line
         y2="88.480003"
         style="fill:none"
         x1="98.333298"
         x2="98.333298"
         y1="90"
         id="line29" />
      <line
         y2="88.480003"
         style="fill:none"
         x1="108.4667"
         x2="108.4667"
         y1="90"
         id="line31" />
      <line
         y2="88.480003"
         style="fill:none"
         x1="118.6"
         x2="118.6"
         y1="90"
         id="line33" />
      <line
         y2="88.480003"
         style="fill:none"
         x1="128.73331"
         x2="128.73331"
         y1="90"
         id="line35" />
      <line
         y2="88.480003"
         style="fill:none"
         x1="138.8667"
         x2="138.8667"
         y1="90"
         id="line37" />
      <line
         y2="88.480003"
         style="fill:none"
         x1="149"
         x2="149"
         y1="90"
         id="line39" />
    </g>
    <g
       transform="translate(78.0667,94.2667)"
       style="font-size:8px;font-family:Arial;color-interpolation:linearRGB;color-rendering:optimizeQuality;image-rendering:optimizeQuality;text-rendering:geometricPrecision"
       id="g41">
      <path
         style="stroke:none"
         d="m -2.1719,-0.09182399 q 0,-1.01570001 0.211,-1.63280001 0.2109,-0.6172 0.625,-0.9532 0.414,-0.3359 1.039,-0.3359 0.4531,0 0.8047,0.1875 0.3516,0.1875 0.5781,0.5313 0.2266,0.3437 0.3516,0.8515 0.125,0.50780001 0.125,1.35160001 0,1.0156 -0.2031,1.63279999 -0.2032,0.6172 -0.6172,0.9531 -0.4141,0.336 -1.0391,0.336 -0.8281,0 -1.2969,-0.5938 -0.5781,-0.7188 -0.5781,-2.32809999 z m 0.7344,0 q 0,1.40619999 0.3281,1.87499999 0.3282,0.4687 0.8125,0.4687 0.4844,0 0.8125,-0.4687 0.3282,-0.4688 0.3282,-1.87499999 0,-1.40630001 -0.3282,-1.87500001 -0.3281,-0.4688 -0.8281,-0.4688 -0.4844,0 -0.7656,0.4063 -0.3594,0.5312 -0.3594,1.93750001 z"
         id="path43"
         inkscape:connector-curvature="0" />
    </g>
    <g
       transform="translate(98.3333,94.2667)"
       style="font-size:8px;font-family:Arial;color-interpolation:linearRGB;color-rendering:optimizeQuality;image-rendering:optimizeQuality;text-rendering:geometricPrecision"
       id="g45">
      <path
         style="stroke:none"
         d="m -1.7926381,3.4288713 -0.7032,0 0,-4.4844 q -0.25,0.24999997 -0.664,0.49219997 -0.4141,0.2422 -0.7422,0.3516 l 0,-0.6719 q 0.5938,-0.28129997 1.0312,-0.67189997 0.4376,-0.3906 0.625,-0.7656 l 0.4532,0 0,5.75 z M 2.6189507e-4,0.60077127 q 0,-1.0157 0.21100000493,-1.63279997 0.2109,-0.6172 0.625,-0.9532 0.414,-0.3359 1.039,-0.3359 0.4532,0 0.8047,0.1875 0.3516,0.1875 0.5782,0.5313 0.2265,0.3437 0.3515,0.85149997 0.125,0.5078 0.125,1.3516 0,1.01560003 -0.2031,1.63280003 -0.2031,0.6172 -0.6172,0.9531 -0.4141,0.336 -1.0391,0.336 -0.8281,0 -1.2968,-0.5938 Q 2.6189507e-4,2.2100713 2.6189507e-4,0.60077127 Z m 0.73440000493,0 q 0,1.40620003 0.3281,1.87500003 0.3282,0.4687 0.8125,0.4687 0.4844,0 0.8125,-0.4687 0.3282,-0.4688 0.3282,-1.87500003 0,-1.4063 -0.3282,-1.87499997 -0.3281,-0.4688 -0.8281,-0.4688 -0.4844,0 -0.7656,0.4063 -0.3594,0.53119997 -0.3594,1.93749997 z"
         id="path47"
         inkscape:connector-curvature="0" />
    </g>
    <g
       transform="translate(118.6,94.2667)"
       style="font-size:8px;font-family:Arial;color-interpolation:linearRGB;color-rendering:optimizeQuality;image-rendering:optimizeQuality;text-rendering:geometricPrecision"
       id="g49">
      <path
         style="stroke:none"
         d="m -0.4688,2.8954903 0,0.6719 -3.7812,0 q -0.0156,-0.25 0.0781,-0.4844 0.1407,-0.3906 0.461,-0.7656 0.3203,-0.375 0.914,-0.875 0.9375,-0.76559998 1.2657,-1.21089998 0.3281,-0.4453 0.3281,-0.836 0,-0.42190002 -0.2969,-0.71090002 -0.2969,-0.2891 -0.7812,-0.2891 -0.5,0 -0.8047,0.3047 -0.3047,0.30470002 -0.3203,0.85160002 l -0.7188,-0.0782 q 0.0781,-0.81240002 0.5625,-1.23430002 0.4844,-0.4219 1.2969,-0.4219 0.8281,0 1.3047,0.4531 0.4765,0.4531 0.4765,1.14070002 0,0.3437 -0.1406,0.6718 -0.1406,0.3282 -0.4609,0.6953 -0.3203,0.36719998 -1.086,1.00789998 -0.625,0.5312 -0.8047,0.7187 -0.1796,0.1875 -0.3046,0.3906 l 2.8124,0 z M 0.2773,0.73929032 q 0,-1.0157 0.211,-1.6328 0.2109,-0.61720002 0.625,-0.95320002 0.414,-0.3359 1.039,-0.3359 0.4532,0 0.8047,0.1875 0.3516,0.1875 0.5782,0.5313 0.2265,0.3437 0.3515,0.85150002 0.125,0.5078 0.125,1.3516 0,1.01559998 -0.2031,1.63279998 -0.2031,0.6172 -0.6172,0.9531 -0.4141,0.336 -1.0391,0.336 -0.8281,0 -1.2968,-0.5938 -0.5782,-0.7188 -0.5782,-2.32809998 z m 0.7344,0 q 0,1.40619998 0.3281,1.87499998 0.3282,0.4687 0.8125,0.4687 0.4844,0 0.8125,-0.4687 0.3282,-0.4688 0.3282,-1.87499998 0,-1.4063 -0.3282,-1.87500002 -0.3281,-0.4688 -0.8281,-0.4688 -0.4844,0 -0.7656,0.4063 -0.3594,0.53120002 -0.3594,1.93750002 z"
         id="path51"
         inkscape:connector-curvature="0" />
    </g>
    <g
       transform="translate(138.8667,94.2667)"
       style="font-size:8px;font-family:Arial;color-interpolation:linearRGB;color-rendering:optimizeQuality;image-rendering:optimizeQuality;text-rendering:geometricPrecision"
       id="g53">
      <path
         style="stroke:none"
         d="m -4.1562,2.1903094 0.7031,-0.0938 q 0.1093,0.5938 0.4062,0.8594 0.2969,0.2656 0.7031,0.2656 0.5,0 0.8438,-0.3437 0.3438,-0.3438 0.3438,-0.8438 0,-0.4843 -0.3204,-0.8047 -0.3203,-0.32030003 -0.8046,-0.32030003 -0.2032,0 -0.5,0.0781 l 0.0781,-0.6093 q 0.0781,0 0.125,0 0.4375,0 0.7969,-0.2344 0.3593,-0.2344 0.3593,-0.7187 0,-0.3907 -0.2578,-0.64069997 -0.2578,-0.25 -0.6797,-0.25 -0.4062,0 -0.6797,0.2578 -0.2734,0.25789997 -0.3515,0.77349997 l -0.7032,-0.125 q 0.125,-0.70319997 0.586,-1.09379997 0.4609,-0.3906 1.1328,-0.3906 0.4688,0 0.8672,0.2031 0.3984,0.2031 0.6094,0.5469 0.2109,0.34379997 0.2109,0.73439997 0,0.375 -0.2031,0.6797 -0.2032,0.3047 -0.5938,0.4765 0.5156,0.125 0.7969,0.49220003 0.2813,0.3672 0.2813,0.9297 0,0.75 -0.5469,1.2734 -0.5469,0.5235 -1.3907,0.5235 -0.75,0 -1.25,-0.4532 -0.5,-0.4531 -0.5624,-1.1718 z M 0.2773,0.87780937 q 0,-1.0157 0.211,-1.6328 0.2109,-0.61719997 0.625,-0.95319997 0.414,-0.3359 1.039,-0.3359 0.4532,0 0.8047,0.1875 0.3516,0.1875 0.5782,0.5313 0.2265,0.34369997 0.3515,0.85149997 0.125,0.5078 0.125,1.3516 0,1.01560003 -0.2031,1.63280003 -0.2031,0.6172 -0.6172,0.9531 -0.4141,0.336 -1.0391,0.336 -0.8281,0 -1.2968,-0.5938 -0.5782,-0.7188 -0.5782,-2.32810003 z m 0.7344,0 q 0,1.40620003 0.3281,1.87500003 0.3282,0.4687 0.8125,0.4687 0.4844,0 0.8125,-0.4687 0.3282,-0.4688 0.3282,-1.87500003 0,-1.4063 -0.3282,-1.875 -0.3281,-0.46879997 -0.8281,-0.46879997 -0.4844,0 -0.7656,0.4063 -0.3594,0.53119997 -0.3594,1.93749997 z"
         id="path55"
         inkscape:connector-curvature="0" />
    </g>
    <g
       transform="translate(111,105.6)"
       style="font-size:8px;font-family:Arial;color-interpolation:linearRGB;color-rendering:optimizeQuality;image-rendering:optimizeQuality;text-rendering:geometricPrecision"
       id="g57">
      <path
         style="stroke:none"
         d="m -27.060419,-1.1252049 0,-5.0469 -1.8906,0 0,-0.6875 4.5469,0 0,0.6875 -1.9063,0 0,5.0469 -0.75,0 z m 3.3399,-4.9219 0,-0.8125 0.7031,0 0,0.8125 -0.7031,0 z m 0,4.9219 0,-4.1562 0.7031,0 0,4.1562 -0.7031,0 z m 1.7773,0 0,-4.1562 0.625,0 0,0.5937 q 0.2031,-0.3125 0.5235,-0.5 0.3203,-0.1875 0.7421,-0.1875 0.4532,0 0.75,0.1953 0.2969,0.1953 0.4219,0.5391 0.4844,-0.7344 1.2813,-0.7344 0.6093,0 0.9453,0.3438 0.3359,0.3437 0.3359,1.0624 l 0,2.8438 -0.7031,0 0,-2.6094 q 0,-0.4218 -0.0703,-0.6094 -0.0703,-0.1874 -0.25,-0.3046 -0.1797,-0.1172 -0.4141,-0.1172 -0.4375,0 -0.7266,0.2968 -0.289,0.2969 -0.289,0.9376 l 0,2.4062 -0.7031,0 0,-2.7031 q 0,-0.4688 -0.1719,-0.7031 -0.1719,-0.2344 -0.5625,-0.2344 -0.2969,0 -0.5547,0.1562 -0.2578,0.1563 -0.3672,0.461 -0.1094,0.3046 -0.1094,0.8672 l 0,2.1562 -0.7031,0 z m 9.5078,-1.3438 0.7188,0.0938 q -0.1719,0.6406 -0.6328,0.9922 -0.461,0.3516 -1.1953,0.3516 -0.9063,0 -1.4376,-0.5626 -0.5312,-0.5624 -0.5312,-1.5781 0,-1.0469 0.5391,-1.625 0.539,-0.5781 1.3984,-0.5781 0.8281,0 1.3594,0.5703 0.5312,0.5703 0.5312,1.6016 0,0.0625 -0.0156,0.1875 l -3.0937,0 q 0.0468,0.6718 0.3906,1.039 0.3437,0.3672 0.875,0.3672 0.375,0 0.6484,-0.2031 0.2734,-0.2031 0.4453,-0.6563 z m -2.3125,-1.125 2.3125,0 q -0.0469,-0.5312 -0.2656,-0.7968 -0.3281,-0.4063 -0.875,-0.4063 -0.4844,0 -0.8125,0.3281 -0.3281,0.3282 -0.3594,0.875 z m 6.1405999,-2.4531 0,-0.8125 0.7032,0 0,0.8125 -0.7032,0 z m 0,4.9219 0,-4.1562 0.7032,0 0,4.1562 -0.7032,0 z m 1.7774,0 0,-4.1562 0.625,0 0,0.5937 q 0.4687,-0.6875 1.3281,-0.6875 0.375,0 0.6875,0.1406 0.3125,0.1406 0.4688,0.3594 0.1562,0.2188 0.2187,0.5156 0.0469,0.1875 0.0469,0.6875 l 0,2.5469 -0.7031,0 0,-2.5312 q 0,-0.4219 -0.086,-0.6329 -0.0859,-0.2109 -0.2968,-0.3437 -0.211,-0.1328 -0.4922,-0.1328 -0.4375,0 -0.7657,0.289 -0.3281,0.2891 -0.3281,1.086 l 0,2.2656 -0.7031,0 z m 5.98050005,-0.625 0.1093,0.6094 q -0.29680005,0.0781 -0.53120005,0.0781 -0.3906,0 -0.6016,-0.125 -0.2109,-0.125 -0.2968,-0.3203 -0.086,-0.1953 -0.086,-0.836 l 0,-2.3906 -0.5156,0 0,-0.5468 0.5156,0 0,-1.0157 0.7031,-0.4219 0,1.4376 0.70320005,0 0,0.5468 -0.70320005,0 0,2.4375 q 0,0.2969 0.0391,0.3828 0.0391,0.086 0.1172,0.1329 0.0781,0.0468 0.2344,0.0468 0.125,0 0.31250005,-0.0156 z m 3.53509995,-0.7188 0.7188,0.0938 q -0.1719,0.6406 -0.6328,0.9922 -0.461,0.3516 -1.1954,0.3516 -0.90619995,0 -1.43749995,-0.5626 -0.5312,-0.5624 -0.5312,-1.5781 0,-1.0469 0.5391,-1.625 0.539,-0.5781 1.39839995,-0.5781 0.8281,0 1.3594,0.5703 0.5312,0.5703 0.5312,1.6016 0,0.0625 -0.0156,0.1875 l -3.09379995,0 q 0.0469,0.6718 0.3907,1.039 0.34369995,0.3672 0.87499995,0.3672 0.375,0 0.6484,-0.2031 0.2734,-0.2031 0.4453,-0.6563 z m -2.31249995,-1.125 2.31249995,0 q -0.0469,-0.5312 -0.2656,-0.7968 -0.3281,-0.4063 -0.875,-0.4063 -0.4844,0 -0.81249995,0.3281 -0.3281,0.3282 -0.3594,0.875 z m 3.90239995,2.4688 0,-4.1562 0.6406,0 0,0.6406 q 0.2344,-0.4532 0.4453,-0.5938 0.2109,-0.1406 0.4453,-0.1406 0.3594,0 0.7344,0.2344 l -0.25,0.6562 q -0.25,-0.1562 -0.5156,-0.1562 -0.2344,0 -0.4141,0.1406 -0.1797,0.1406 -0.2578,0.375 -0.125,0.375 -0.125,0.8281 l 0,2.1719 -0.7031,0 z m 3.8359,0 -1.5781,-4.1562 0.7343,0 0.8907,2.4843 q 0.1406,0.4063 0.2656,0.8438 0.0937,-0.3281 0.2656,-0.7969 l 0.9219,-2.5312 0.7188001,0 -1.5626001,4.1562 -0.6562,0 z m 5.5469001,-0.5156 q -0.3907,0.3281 -0.75,0.4687 -0.3594,0.1407 -0.7813,0.1407 -0.6718,0 -1.039,-0.336 -0.3672,-0.3359 -0.3672,-0.8516 0,-0.3124 0.1328,-0.5624 0.1328,-0.25 0.3594,-0.3985 0.2265,-0.1484 0.5078,-0.2265 0.2031,-0.0626 0.625,-0.1094 0.8594,-0.1094 1.25,-0.25 0.0156,-0.1406 0.0156,-0.1719 0,-0.4375 -0.2031,-0.6094 -0.2657,-0.2343 -0.7969,-0.2343 -0.5,0 -0.7344,0.1718 -0.2344,0.1719 -0.3594,0.6094 l -0.6874,-0.0938 q 0.0937,-0.4374 0.3124,-0.7109 0.2188,-0.2734 0.625,-0.4219 0.4063,-0.1484 0.9376,-0.1484 0.5312,0 0.8671,0.125 0.336,0.125 0.4922,0.3203 0.1563,0.1953 0.2188,0.4766 0.0312,0.1875 0.0312,0.6562 l 0,0.9375 q 0,0.9688 0.0469,1.2344 0.0469,0.2656 0.1719,0.5 l -0.7344,0 q -0.1094,-0.2188 -0.1406,-0.5156 z m -0.0625,-1.5625 q -0.375,0.1562 -1.1406,0.2656 -0.4376,0.0625 -0.6172,0.1406 -0.1797,0.0781 -0.2735,0.2266 -0.0937,0.1484 -0.0937,0.3359 0,0.2813 0.2109,0.4688 0.2109,0.1875 0.6172,0.1875 0.4063,0 0.7266,-0.1797 0.3203,-0.1797 0.4609,-0.4922 0.1094,-0.2344 0.1094,-0.7031 l 0,-0.25 z m 1.7929,2.0781 0,-5.7344 0.7032,0 0,5.7344 -0.7032,0 z m 5.3594,1.68749996 q -0.5781,-0.7344 -0.9844,-1.71869996 -0.4062,-0.9844 -0.4062,-2.0469 0,-0.9219 0.2969,-1.7813 0.3593,-0.9844 1.0937,-1.9687 l 0.5,0 q -0.4687,0.8125 -0.625,1.1562 -0.2344,0.5469 -0.375,1.125 -0.1719,0.7344 -0.1719,1.4688 0,1.8906 1.1719,3.76559996 l -0.5,0 z m 4.0078,-1.68749996 0,-0.5312 q -0.3906,0.625 -1.1562,0.625 -0.5,0 -0.9141,-0.2735 -0.414,-0.2734 -0.6406,-0.7656 -0.2266,-0.4922 -0.2266,-1.1328 0,-0.6094 0.2032,-1.1172 0.2031,-0.5078 0.6171,-0.7813 0.4141,-0.2734 0.9297,-0.2734 0.375,0 0.6641,0.1641 0.2891,0.164 0.4766,0.414 l 0,-2.0625 0.7031,0 0,5.7344 -0.6563,0 z m -2.2187,-2.0781 q 0,0.7969 0.3359,1.1953 0.336,0.3984 0.7891,0.3984 0.4687,0 0.789,-0.375 0.3204,-0.375 0.3204,-1.1562 0,-0.8438 -0.3282,-1.2422 -0.3281,-0.3984 -0.8125,-0.3984 -0.4687,0 -0.7812,0.3828 -0.3125,0.3828 -0.3125,1.1953 z m 4.4336,3.76559996 -0.5,0 q 1.1718,-1.87499996 1.1718,-3.76559996 0,-0.7344 -0.1718,-1.4531 -0.125,-0.5782 -0.375,-1.125 -0.1406,-0.3438 -0.625,-1.1719 l 0.5,0 q 0.7344,0.9843 1.0937,1.9687 0.2969,0.8594 0.2969,1.7813 0,1.0625 -0.4062,2.0469 -0.4063,0.98429996 -0.9844,1.71869996 z"
         id="path59"
         inkscape:connector-curvature="0" />
    </g>
    <g
       style="color-interpolation:linearRGB;stroke-width:0.66670001;stroke-linejoin:round;color-rendering:optimizeQuality;image-rendering:optimizeQuality;text-rendering:geometricPrecision"
       id="g61">
      <line
         y2="35"
         style="fill:none"
         x1="73"
         x2="73"
         y1="90"
         id="line63" />
      <line
         y2="90"
         style="fill:none"
         x1="73"
         x2="74.519997"
         y1="90"
         id="line65" />
      <line
         y2="76.25"
         style="fill:none"
         x1="73"
         x2="74.519997"
         y1="76.25"
         id="line67" />
      <line
         y2="62.5"
         style="fill:none"
         x1="73"
         x2="74.519997"
         y1="62.5"
         id="line69" />
      <line
         y2="48.75"
         style="fill:none"
         x1="73"
         x2="74.519997"
         y1="48.75"
         id="line71" />
      <line
         y2="35"
         style="fill:none"
         x1="73"
         x2="74.519997"
         y1="35"
         id="line73" />
    </g>
    <g
       transform="translate(68.7333,90)"
       style="font-size:8px;font-family:Arial;color-interpolation:linearRGB;color-rendering:optimizeQuality;image-rendering:optimizeQuality;text-rendering:geometricPrecision"
       id="g75">
      <path
         style="stroke:none"
         d="m -1.0704046,0.1719 q 0,-1.0157 0.21099996,-1.6328 0.2109,-0.6172 0.625,-0.9532 0.414,-0.3359 1.039,-0.3359 0.45310004,0 0.80470004,0.1875 0.3516,0.1875 0.5781,0.5313 0.2266,0.3437 0.3516,0.8515 0.125,0.5078 0.125,1.3516 0,1.0156 -0.2031,1.6328 -0.2032,0.6172 -0.6172,0.9531 -0.4141,0.336 -1.03910004,0.336 -0.8281,0 -1.2969,-0.5938 Q -1.0704046,1.7812 -1.0704046,0.1719 Z m 0.73439996,0 q 0,1.4062 0.3281,1.875 0.3282,0.4687 0.8125,0.4687 0.48440004,0 0.81250004,-0.4687 0.3282,-0.4688 0.3282,-1.875 0,-1.4063 -0.3282,-1.875 -0.3281,-0.4688 -0.82810004,-0.4688 -0.4844,0 -0.7656,0.4063 -0.3594,0.5312 -0.3594,1.9375 z"
         id="path77"
         inkscape:connector-curvature="0" />
    </g>
    <g
       transform="translate(68.7333,35)"
       style="font-size:8px;font-family:Arial;color-interpolation:linearRGB;color-rendering:optimizeQuality;image-rendering:optimizeQuality;text-rendering:geometricPrecision"
       id="g79">
      <path
         style="stroke:none"
         d="m -1.6443427,2.3281 0,0.6719 -3.7812,0 q -0.0156,-0.25 0.0781,-0.4844 0.1407,-0.3906 0.461,-0.7656 0.3203,-0.375 0.914,-0.875 0.9375,-0.7656 1.2657,-1.2109 0.3281,-0.4453 0.3281,-0.836 0,-0.4219 -0.2969,-0.7109 -0.2969,-0.2891 -0.7812,-0.2891 -0.5,0 -0.8047,0.3047 -0.3047,0.3047 -0.3203,0.8516 l -0.7188,-0.0782 q 0.0781,-0.8124 0.5625,-1.2343 0.4844,-0.4219 1.2969,-0.4219 0.8281,0 1.3047,0.4531 0.4765,0.4531 0.4765,1.1407 0,0.3437 -0.1406,0.6718 -0.1406,0.3282 -0.4609,0.6953 -0.3203,0.3672 -1.086,1.0079 -0.625,0.5312 -0.8047,0.7187 -0.1796,0.1875 -0.3046,0.3906 l 2.8124,0 z m 3.0118,0.6719 0,-1.375 -2.4844,0 0,-0.6406 2.6094,-3.7188 0.5781,0 0,3.7188 0.7656,0 0,0.6406 -0.7656,0 0,1.375 -0.7031,0 z m 0,-2.0156 0,-2.5782 -1.79690004,2.5782 1.79690004,0 z"
         id="path81"
         inkscape:connector-curvature="0" />
    </g>
    <g
       transform="matrix(0,-1,1,0,43,80)"
       style="font-size:8px;font-family:Arial;color-interpolation:linearRGB;color-rendering:optimizeQuality;image-rendering:optimizeQuality;text-rendering:geometricPrecision"
       id="g83">
      <path
         style="stroke:none"
         d="m 5.1649287,18.561553 0,-5.7344 1.1406,0 1.3594,4.0625 q 0.1874,0.5625 0.2656,0.8438 0.1094,-0.3125 0.3125,-0.9219 l 1.375,-3.9844 1.0156003,0 0,5.7344 -0.7344003,0 0,-4.7969 -1.6562,4.7969 -0.6875,0 -1.6563,-4.875 0,4.875 -0.7343,0 z m 9.4453003,-1.3438 0.7187,0.0938 q -0.1719,0.6406 -0.6328,0.9922 -0.4609,0.3516 -1.1953,0.3516 -0.9063,0 -1.4375,-0.5626 -0.5313,-0.5624 -0.5313,-1.5781 0,-1.0469 0.5391,-1.625 0.5391,-0.5781 1.3984,-0.5781 0.8282,0 1.3594,0.5703 0.5313,0.5703 0.5313,1.6016 0,0.0625 -0.0157,0.1875 l -3.0937,0 q 0.0469,0.6718 0.3906,1.039 0.3438,0.3672 0.875,0.3672 0.375,0 0.6485,-0.2031 0.2734,-0.2031 0.4453,-0.6563 z m -2.3125,-1.125 2.3125,0 q -0.0469,-0.5312 -0.2657,-0.7968 -0.3281,-0.4063 -0.875,-0.4063 -0.4843,0 -0.8125,0.3281 -0.3281,0.3282 -0.3593,0.875 z m 6.6054,2.4688 0,-0.5312 q -0.3906,0.625 -1.1562,0.625 -0.5,0 -0.9141,-0.2735 -0.414,-0.2734 -0.6406,-0.7656 -0.2266,-0.4922 -0.2266,-1.1328 0,-0.6094 0.2032,-1.1172 0.2031,-0.5078 0.6171,-0.7813 0.4141,-0.2734 0.9297,-0.2734 0.375,0 0.6641,0.1641 0.2891,0.164 0.4766,0.414 l 0,-2.0625 0.7031,0 0,5.7344 -0.6563,0 z m -2.2187,-2.0781 q 0,0.7969 0.3359,1.1953 0.336,0.3984 0.7891,0.3984 0.4687,0 0.789,-0.375 0.3204,-0.375 0.3204,-1.1562 0,-0.8438 -0.3282,-1.2422 -0.3281,-0.3984 -0.8125,-0.3984 -0.4687,0 -0.7812,0.3828 -0.3125,0.3828 -0.3125,1.1953 z m 3.9805,-2.8438 0,-0.8125 0.7031,0 0,0.8125 -0.7031,0 z m 0,4.9219 0,-4.1562 0.7031,0 0,4.1562 -0.7031,0 z m 4.4804,-0.5156 q -0.3906,0.3281 -0.75,0.4687 -0.3594,0.1407 -0.7812,0.1407 -0.6719,0 -1.0391,-0.336 -0.3672,-0.3359 -0.3672,-0.8516 0,-0.3124 0.1328,-0.5624 0.1328,-0.25 0.3594,-0.3985 0.2266,-0.1484 0.5078,-0.2265 0.2031,-0.0626 0.625,-0.1094 0.8594,-0.1094 1.25,-0.25 0.0156,-0.1406 0.0156,-0.1719 0,-0.4375 -0.2031,-0.6094 -0.2656,-0.2343 -0.7969,-0.2343 -0.5,0 -0.7343,0.1718 -0.2344,0.1719 -0.3594,0.6094 l -0.6875,-0.0938 q 0.0937,-0.4374 0.3125,-0.7109 0.2187,-0.2734 0.625,-0.4219 0.4062,-0.1484 0.9375,-0.1484 0.5312,0 0.8672,0.125 0.3359,0.125 0.4922,0.3203 0.1562,0.1953 0.2187,0.4766 0.0313,0.1875 0.0313,0.6562 l 0,0.9375 q 0,0.9688 0.0468,1.2344 0.0469,0.2656 0.1719,0.5 l -0.7344,0 q -0.1093,-0.2188 -0.1406,-0.5156 z m -0.0625,-1.5625 q -0.375,0.1562 -1.1406,0.2656 -0.4375,0.0625 -0.6172,0.1406 -0.1797,0.0781 -0.2734,0.2266 -0.0938,0.1484 -0.0938,0.3359 0,0.2813 0.211,0.4688 0.2109,0.1875 0.6171,0.1875 0.4063,0 0.7266,-0.1797 0.3203,-0.1797 0.4609,-0.4922 0.1094,-0.2344 0.1094,-0.7031 l 0,-0.25 z m 1.8086,2.0781 0,-4.1562 0.625,0 0,0.5937 q 0.4688,-0.6875 1.3281,-0.6875 0.375,0 0.6875,0.1406 0.3125,0.1406 0.4688,0.3594 0.1562,0.2188 0.2187,0.5156 0.0469,0.1875 0.0469,0.6875 l 0,2.5469 -0.7031,0 0,-2.5312 q 0,-0.4219 -0.086,-0.6329 -0.0859,-0.2109 -0.2968,-0.3437 -0.211,-0.1328 -0.4922,-0.1328 -0.4375,0 -0.7656,0.289 -0.3282,0.2891 -0.3282,1.086 l 0,2.2656 -0.7031,0 z"
         id="path85"
         inkscape:connector-curvature="0" />
    </g>
    <g
       transform="matrix(0,-1,1,0,54,80)"
       style="font-size:8px;font-family:Arial;color-interpolation:linearRGB;color-rendering:optimizeQuality;image-rendering:optimizeQuality;text-rendering:geometricPrecision"
       id="g87">
      <path
         style="stroke:none"
         d="m 3.0979619,13.33922 0.7188,0.0938 q -0.1719,0.6406 -0.6329,0.9922 -0.4609,0.3516 -1.1953,0.3516 -0.9062,0 -1.4375,-0.5626 -0.5312,-0.5624 -0.5312,-1.5781 0,-1.0469 0.539,-1.625 0.5391,-0.5781 1.3985,-0.5781 0.8281,0 1.3594,0.5703 0.5312,0.5703 0.5312,1.6016 0,0.0625 -0.0156,0.1875 l -3.0938,0 q 0.0469,0.6718 0.3906,1.039 0.3438,0.3672 0.875,0.3672 0.375,0 0.6485,-0.2031 0.2734,-0.2031 0.4453,-0.6563 z m -2.3125,-1.125 2.3125,0 q -0.0469,-0.5312 -0.2656,-0.7968 -0.3282,-0.4063 -0.875,-0.4063 -0.4844,0 -0.8125,0.3281 -0.3281,0.3282 -0.3594,0.875 z m 3.9023,2.4688 0,-4.1562 0.6407,0 0,0.6406 q 0.2343,-0.4532 0.4453,-0.5938 0.2109,-0.1406 0.4453,-0.1406 0.3594,0 0.7344,0.2344 l -0.25,0.6562 q -0.25,-0.1562 -0.5157,-0.1562 -0.2343,0 -0.414,0.1406 -0.1797,0.1406 -0.2578,0.375 -0.125,0.375 -0.125,0.8281 l 0,2.1719 -0.7032,0 z m 2.6641,0 0,-4.1562 0.6406,0 0,0.6406 q 0.2344,-0.4532 0.4453,-0.5938 0.211,-0.1406 0.4454,-0.1406 0.3593,0 0.7343,0.2344 l -0.25,0.6562 q -0.25,-0.1562 -0.5156,-0.1562 -0.2344,0 -0.4141,0.1406 -0.1796,0.1406 -0.2578,0.375 -0.125,0.375 -0.125,0.8281 l 0,2.1719 -0.7031,0 z m 2.4141,-2.0781 q 0,-1.1563 0.6406001,-1.7031 0.5312,-0.4688 1.3125,-0.4688 0.8437,0 1.3906,0.5625 0.5469,0.5625 0.5469,1.5469 0,0.8125 -0.2422,1.2656 -0.2422,0.4531 -0.7031,0.7109 -0.461,0.2579 -0.9922,0.2579 -0.875,0 -1.4141,-0.5626 -0.5390001,-0.5624 -0.5390001,-1.6093 z m 0.7187001,0 q 0,0.7969 0.3516,1.1953 0.3515,0.3984 0.8828,0.3984 0.5156,0 0.8672,-0.3984 0.3515,-0.3984 0.3515,-1.211 0,-0.7812 -0.3515,-1.1718 -0.3516,-0.3906 -0.8672,-0.3906 -0.5313,0 -0.8828,0.3906 -0.3516,0.3906 -0.3516,1.1875 z m 3.9805,2.0781 0,-4.1562 0.6406,0 0,0.6406 q 0.2344,-0.4532 0.4453,-0.5938 0.211,-0.1406 0.4453,-0.1406 0.3594,0 0.7344,0.2344 l -0.25,0.6562 q -0.25,-0.1562 -0.5156,-0.1562 -0.2344,0 -0.4141,0.1406 -0.1797,0.1406 -0.2578,0.375 -0.125,0.375 -0.125,0.8281 l 0,2.1719 -0.7031,0 z m 6.2461,1.6875 q -0.5781,-0.7344 -0.9844,-1.7187 -0.4062,-0.9844 -0.4062,-2.0469 0,-0.9219 0.2968,-1.7813 0.3594,-0.9844004 1.0938,-1.9687004 l 0.5,0 q -0.4688,0.8125 -0.625,1.1562004 -0.2344,0.5469 -0.375,1.125 -0.1719,0.7344 -0.1719,1.4688 0,1.8906 1.1719,3.7656 l -0.5,0 z m 4.0234,-3.2031 0.6875,0.0781 q -0.1094,0.7187 -0.5781,1.125 -0.4688,0.4063 -1.1406,0.4063 -0.8594,0 -1.375,-0.5547 -0.5157,-0.5547 -0.5157,-1.6016 0,-0.6719 0.2266,-1.1719 0.2266,-0.5 0.6797,-0.7578 0.4531,-0.2578 0.9844,-0.2578 0.6718,0 1.1015,0.3438 0.4297,0.3437 0.5547,0.9687 l -0.6875,0.1094 q -0.0937,-0.4219 -0.3437,-0.6328 -0.25,-0.211 -0.5938,-0.211 -0.5312,0 -0.8672,0.3828 -0.3359,0.3829 -0.3359,1.211 0,0.8281 0.3203,1.2109 0.3203,0.3828 0.8359,0.3828 0.4219,0 0.6954,-0.2578 0.2734,-0.2578 0.3515,-0.7734 z m 1.2969,1.5156 0,-4.1562 0.625,0 0,0.5937 q 0.2031,-0.3125 0.5234,-0.5 0.3203,-0.1875 0.7422,-0.1875 0.4531,0 0.75,0.1953 0.2969,0.1953 0.4219,0.5391 0.4844,-0.7344 1.2812,-0.7344 0.6094,0 0.9454,0.3438 0.3359,0.3437 0.3359,1.0624 l 0,2.8438 -0.7031,0 0,-2.6094 q 0,-0.4218 -0.0703,-0.6094 -0.0704,-0.1874 -0.25,-0.3046 -0.1797,-0.1172 -0.4141,-0.1172 -0.4375,0 -0.7266,0.2968 -0.289,0.2969 -0.289,0.9376 l 0,2.4062 -0.7032,0 0,-2.7031 q 0,-0.4688 -0.1718,-0.7031 -0.1719,-0.2344 -0.5625,-0.2344 -0.2969,0 -0.5547,0.1562 -0.2578,0.1563 -0.3672,0.461 -0.1094,0.3046 -0.1094,0.8672 l 0,2.1562 -0.7031,0 z m 7.1172,1.6875 -0.5,0 q 1.1719,-1.875 1.1719,-3.7656 0,-0.7344 -0.1719,-1.4531 -0.125,-0.5782 -0.375,-1.125 -0.1406,-0.3438004 -0.625,-1.1719004 l 0.5,0 q 0.7344,0.9843 1.0937,1.9687004 0.2969,0.8594 0.2969,1.7813 0,1.0625 -0.4062,2.0469 -0.4063,0.9843 -0.9844,1.7187 z"
         id="path89"
         inkscape:connector-curvature="0" />
    </g>
    <g
       style="color-interpolation:linearRGB;fill:#2970ff;stroke:#2970ff;stroke-width:0.66670001;stroke-linecap:butt;stroke-linejoin:round;color-rendering:optimizeQuality;image-rendering:optimizeQuality;text-rendering:geometricPrecision"
       id="g91">
      <path
         d="M 80.0933,88.1667 82.12,86.3333 84.1467,84.5 86.1733,82.6667 88.2,80.8333 90.2267,79 92.2533,77.1667 94.28,75.3333 96.3067,73.5 98.3333,71.6667 100.36,69.8333 102.3867,68 104.4133,66.1667 106.44,64.3333 108.4667,62.5 110.4933,60.6667 112.52,58.8333 114.5467,57 116.5733,55.1667 118.6,53.3333 120.6267,51.5 122.6533,49.6667 124.68,47.8333 126.7067,46 128.7333,44.1667 130.76,42.3333 132.7867,40.5 134.8133,38.6667 136.84,36.8333 138.8667,35"
         style="fill:none;fill-rule:evenodd"
         id="path93"
         inkscape:connector-curvature="0" />
    </g>
    <g
       transform="translate(84.1467,78.5417)"
       style="font-size:8px;font-family:SansSerif;color-interpolation:linearRGB;fill:#ff0000;stroke:#ff0000;color-rendering:optimizeQuality;image-rendering:optimizeQuality;text-rendering:geometricPrecision"
       id="g95">
      <path
         style="stroke:none"
         d="m -3.9284478,-29.977834 3.68760002,0 0,0.6562 -2.89070002,0 0,1.7344 2.78130002,0 0,0.6563 -2.78130002,0 0,2.1093 2.96880002,0 0,0.6719 -3.76570002,0 0,-5.8281 z m 8.6641,1.4531 -1.5781,2.125 1.6562,2.25 -0.8437,0 -1.2656,-1.7188 -1.2813,1.7188 -0.84369998,0 1.70309998,-2.2969 -1.56249998,-2.0781 0.84369998,0 1.1719,1.5625 1.1563,-1.5625 0.8437,0 z m 3.0938,2.1719 q -0.875,0 -1.211,0.2031 -0.3359,0.2031 -0.3359,0.6719 0,0.3906 0.25,0.6172 0.25,0.2265 0.6875,0.2265 0.5937,0 0.9531,-0.4297 0.3594,-0.4297 0.3594,-1.1328 l 0,-0.1562 -0.7031,0 z m 1.4218,-0.2969 0,2.5 -0.7187,0 0,-0.6719 q -0.2344,0.4063 -0.6016,0.5938 -0.3672,0.1875 -0.8984,0.1875 -0.6719,0 -1.0703,-0.375 -0.3985,-0.375 -0.3985,-1.0156 0,-0.7344 0.4922,-1.1094 0.4922,-0.375 1.4766,-0.375 l 1,0 0,-0.0625 q 0,-0.5 -0.3203,-0.7735 -0.3203,-0.2734 -0.9141,-0.2734 -0.375,0 -0.7344,0.0938 -0.3593,0.0937 -0.6875,0.2656 l 0,-0.6563 q 0.4063,-0.1562 0.7735,-0.2343 0.3672,-0.0782 0.7265,-0.0782 0.9375,0 1.4063,0.4922 0.4687,0.4922 0.4687,1.4922 z m 4.8867998,-1.0312 q 0.2812,-0.4844 0.6562,-0.7188 0.375,-0.2344 0.875,-0.2344 0.6875,0 1.0547,0.4766 0.3672,0.4766 0.3672,1.3672 l 0,2.6406 -0.7188,0 0,-2.625 q 0,-0.625 -0.2187,-0.9297 -0.2188,-0.3047 -0.6875,-0.3047 -0.5469,0 -0.875,0.375 -0.3281,0.375 -0.3281,1.0156 l 0,2.4688 -0.7188,0 0,-2.625 q 0,-0.625 -0.2266,-0.9297 -0.2265,-0.3047 -0.6796,-0.3047 -0.5625,0 -0.8829,0.375 -0.3203,0.375 -0.3203,1.0156 l 0,2.4688 -0.7187,0 0,-4.375 0.7187,0 0,0.6719 q 0.25,-0.3907 0.5938,-0.586 0.3437,-0.1953 0.8125,-0.1953 0.4687,0 0.8047,0.2422 0.3359,0.2422 0.4922,0.711 z m 5.0898,2.875 0,2.3281 -0.7187,0 0,-6.0469 0.7187,0 0,0.6562 q 0.2187,-0.3906 0.5703,-0.5781 0.3516,-0.1875 0.8203,-0.1875 0.7969,0 1.2969,0.6328 0.5,0.6328 0.5,1.6641 0,1.0313 -0.5,1.6641 -0.5,0.6328 -1.2969,0.6328 -0.4687,0 -0.8203,-0.1875 -0.3516,-0.1875 -0.5703,-0.5781 z m 2.4375,-1.5313 q 0,-0.7969 -0.3203,-1.2422 -0.3203,-0.4453 -0.8985,-0.4453 -0.5624,0 -0.8906,0.4453 -0.3281,0.4453 -0.3281,1.2422 0,0.7969 0.3281,1.25 0.3282,0.4531 0.8906,0.4531 0.5782,0 0.8985,-0.4531 0.3203,-0.4531 0.3203,-1.25 z m 1.9375,-3.8906 0.7187,0 0,6.0781 -0.7187,0 0,-6.0781 z m 5.9727,3.7031 0,0.3594 -3.3125,0 q 0.0468,0.7344 0.4531,1.125 0.4062,0.3906 1.1094,0.3906 0.4218,0 0.8125,-0.1016 0.3906,-0.1015 0.7656,-0.3046 l 0,0.6874 q -0.3906,0.1563 -0.7969,0.2422 -0.4062,0.086 -0.8125,0.086 -1.0469,0 -1.6641,-0.6094 -0.6171,-0.6094 -0.6171,-1.6406 0,-1.0782 0.5859,-1.711 0.5859,-0.6328 1.5703,-0.6328 0.875,0 1.3906,0.5703 0.5157,0.5703 0.5157,1.5391 z m -0.7188,-0.2031 q -0.0156,-0.5938 -0.3359,-0.9453 -0.3203,-0.3516 -0.8516,-0.3516 -0.5937,0 -0.9609,0.3438 -0.3672,0.3437 -0.4141,0.9531 l 2.5625,0 z"
         id="path97"
         inkscape:connector-curvature="0" />
    </g>
  </g>
</svg>
